<svg width="187" height="38" viewBox="0 0 187 38" fill="none" xmlns="http://www.w3.org/2000/svg">
<path d="M54.1696 23.3913C54.7468 23.3913 55.2415 23.3508 55.6538 23.2294C56.066 23.1079 56.3546 23.027 56.602 22.8246C56.8493 22.6222 57.0142 22.4603 57.0967 22.2175C57.1791 22.0151 57.2616 21.7317 57.2616 21.4484C57.2616 20.8413 56.973 20.3151 56.3958 19.9508C55.8187 19.5865 54.8293 19.1413 53.3864 18.6556C52.768 18.4532 52.1496 18.2103 51.5312 17.927C50.9128 17.6437 50.3769 17.2794 49.8822 16.8746C49.3875 16.4699 48.9752 15.9437 48.6866 15.3366C48.3981 14.7294 48.2332 14.0413 48.2332 13.1509C48.2332 12.3009 48.3981 11.5318 48.7279 10.8437C49.0577 10.1556 49.5112 9.58898 50.1295 9.10327C50.7067 8.61756 51.4488 8.25328 52.3145 7.96994C53.139 7.68661 54.1284 7.56519 55.2003 7.56519C56.4783 7.56519 57.5914 7.72709 58.4983 7.96994C59.4053 8.25328 60.1886 8.53661 60.7657 8.86041L59.5702 12.139C59.0343 11.8556 58.4571 11.6128 57.7975 11.4509C57.1379 11.2485 56.3958 11.1271 55.4889 11.1271C54.4582 11.1271 53.7574 11.289 53.3039 11.5318C52.8504 11.7747 52.6443 12.2199 52.6443 12.7866C52.6443 13.1104 52.7267 13.4342 52.8917 13.6366C53.0566 13.8794 53.3039 14.0818 53.5925 14.2842C53.8811 14.4866 54.2521 14.6485 54.6231 14.8104C55.0354 14.9723 55.4476 15.1342 55.9011 15.2556C56.8493 15.6199 57.715 15.9437 58.4571 16.308C59.1579 16.6318 59.7763 17.077 60.271 17.5223C60.7245 17.9675 61.0955 18.5341 61.3429 19.1413C61.5903 19.7889 61.6727 20.5175 61.6727 21.4079C61.6727 23.1484 61.0543 24.4841 59.8176 25.415C58.5808 26.346 56.7256 26.8317 54.2521 26.8317C53.4276 26.8317 52.6855 26.7912 51.9847 26.6698C51.3251 26.5888 50.7067 26.4674 50.212 26.3055C49.6761 26.1436 49.2638 26.0222 48.8928 25.8603C48.5217 25.6984 48.1919 25.5365 47.9446 25.415L49.1401 22.096C49.7173 22.3794 50.4181 22.6627 51.2014 22.9055C51.9435 23.2698 52.9741 23.3913 54.1696 23.3913Z" fill="white"/>
<path d="M68.0211 8.57753C68.0211 9.3061 67.7737 9.87276 67.3202 10.318C66.8667 10.7228 66.2896 10.9656 65.63 10.9656C64.9704 10.9656 64.4344 10.7632 63.9397 10.318C63.4863 9.91323 63.2389 9.3061 63.2389 8.57753C63.2389 7.84896 63.4863 7.2823 63.9397 6.83707C64.3932 6.43231 64.9704 6.18945 65.63 6.18945C66.2896 6.18945 66.8255 6.39183 67.3202 6.83707C67.7737 7.2823 68.0211 7.84896 68.0211 8.57753ZM67.65 26.6298H63.6099V12.6251H67.65V26.6298Z" fill="white"/>
<path d="M77.544 19.2275C77.544 17.9322 77.3791 17.0418 77.0493 16.5156C76.7195 15.9894 76.1424 15.7061 75.3179 15.7061C75.0705 15.7061 74.7819 15.7466 74.5346 15.7466C74.246 15.787 73.9986 15.787 73.7513 15.8275V26.675H69.7112V13.1156C70.041 13.0347 70.4532 12.9132 70.9067 12.8323C71.3602 12.7513 71.8549 12.6299 72.3496 12.549C72.8855 12.468 73.3803 12.3871 73.9162 12.3466C74.4521 12.3061 74.9881 12.2656 75.524 12.2656C76.5546 12.2656 77.4204 12.3871 78.0387 12.6704C78.6984 12.9537 79.1931 13.237 79.6053 13.6013C80.1825 13.1966 80.8421 12.8728 81.6254 12.6704C82.3674 12.4275 83.0683 12.3466 83.6867 12.3466C84.841 12.3466 85.7479 12.5085 86.49 12.7918C87.2321 13.1156 87.8092 13.5609 88.2627 14.087C88.7162 14.6537 89.0048 15.3418 89.1697 16.1108C89.3346 16.8799 89.417 17.7703 89.417 18.7418V26.675H85.3769V19.2275C85.3769 17.9322 85.212 17.0418 84.8822 16.5156C84.5524 15.9894 83.9752 15.7061 83.1507 15.7061C82.9446 15.7061 82.6148 15.7466 82.2438 15.868C81.8315 15.9489 81.5429 16.1108 81.2956 16.2727C81.4192 16.6775 81.5017 17.1227 81.5429 17.568C81.5842 18.0132 81.5841 18.4989 81.5841 19.0251V26.675H77.544V19.2275Z" fill="white"/>
<path d="M104.792 19.5525C104.792 20.6453 104.669 21.6167 104.38 22.5072C104.091 23.3977 103.72 24.1667 103.184 24.7738C102.648 25.4215 101.989 25.9072 101.247 26.2714C100.464 26.6357 99.5566 26.7976 98.5672 26.7976C97.99 26.7976 97.4953 26.7572 97.0006 26.6357C96.5059 26.5548 96.0524 26.3524 95.5989 26.1905V31.4524H91.5176V13.0358C91.8886 12.9549 92.3009 12.8335 92.7543 12.712C93.2078 12.6311 93.7025 12.5096 94.2385 12.4692C94.7744 12.3882 95.2691 12.3477 95.805 12.3073C96.341 12.2668 96.8357 12.2263 97.3304 12.2263C98.5259 12.2263 99.5566 12.3882 100.464 12.7525C101.37 13.0763 102.154 13.562 102.772 14.2096C103.432 14.8572 103.885 15.6263 104.215 16.5168C104.627 17.4477 104.792 18.4596 104.792 19.5525ZM100.67 19.6739C100.67 18.4596 100.381 17.4477 99.8451 16.7191C99.268 15.9906 98.4435 15.5858 97.3304 15.5858C96.9594 15.5858 96.6296 15.6263 96.2997 15.6263C96.0112 15.6668 95.7226 15.6668 95.5165 15.7072V22.8715C95.7638 23.0334 96.0936 23.1548 96.5059 23.2762C96.9181 23.3572 97.3304 23.4381 97.7426 23.4381C99.7215 23.4786 100.67 22.2239 100.67 19.6739Z" fill="white"/>
<path d="M112.586 26.8337C111.391 26.7932 110.442 26.6718 109.7 26.4694C108.958 26.267 108.381 25.9028 107.969 25.498C107.557 25.0932 107.268 24.567 107.103 23.9599C106.938 23.3528 106.897 22.7052 106.897 21.9361V6.5148L110.937 5.86719V21.1266C110.937 21.4909 110.978 21.8147 111.019 22.098C111.061 22.3813 111.184 22.6242 111.349 22.8266C111.514 23.029 111.72 23.1909 112.009 23.3123C112.297 23.4337 112.668 23.5147 113.163 23.5552L112.586 26.8337Z" fill="white"/>
<path d="M119.759 8.57753C119.759 9.3061 119.512 9.87276 119.059 10.318C118.605 10.7632 118.028 10.9656 117.368 10.9656C116.709 10.9656 116.173 10.7632 115.678 10.318C115.225 9.91323 114.977 9.3061 114.977 8.57753C114.977 7.84896 115.225 7.2823 115.678 6.83707C116.132 6.43231 116.709 6.18945 117.368 6.18945C118.028 6.18945 118.564 6.39183 119.059 6.83707C119.512 7.2823 119.759 7.84896 119.759 8.57753ZM119.388 26.6298H115.348V12.6251H119.388V26.6298Z" fill="white"/>
<path d="M134.146 13.7139C134.146 15.0901 133.775 16.183 133.033 16.9925C132.291 17.802 131.302 18.3687 130.106 18.7329C130.395 19.0972 130.766 19.5425 131.261 20.1496C131.714 20.7567 132.209 21.4044 132.703 22.1329C133.198 22.8615 133.652 23.6305 134.146 24.3996C134.6 25.1686 135.012 25.9377 135.342 26.6257H133.363C132.992 25.9377 132.58 25.2091 132.126 24.4805C131.673 23.7924 131.219 23.0639 130.766 22.4162C130.312 21.7686 129.859 21.121 129.447 20.5544C128.993 19.9877 128.622 19.502 128.292 19.0567C127.715 19.0972 127.138 19.1377 126.561 19.1377H123.51V26.5853H121.614V8.53302C122.273 8.37112 123.015 8.20922 123.922 8.12826C124.788 8.04731 125.613 8.00684 126.355 8.00684C128.952 8.00684 130.89 8.49255 132.209 9.42349C133.487 10.3949 134.146 11.852 134.146 13.7139ZM126.561 9.5854C125.86 9.5854 125.283 9.62587 124.747 9.66635C124.211 9.70682 123.799 9.7473 123.469 9.78778V17.6401H126.025C126.849 17.6401 127.674 17.5996 128.457 17.5187C129.241 17.4377 129.859 17.2353 130.436 16.9925C131.013 16.7496 131.467 16.3044 131.755 15.8187C132.085 15.2925 132.25 14.6044 132.25 13.7139C132.25 12.9044 132.085 12.2163 131.755 11.6901C131.425 11.164 131.013 10.7592 130.477 10.4354C129.941 10.1116 129.323 9.9092 128.663 9.78778C127.963 9.66635 127.262 9.5854 126.561 9.5854Z" fill="white"/>
<path d="M150.059 19.714C150.059 20.8068 149.894 21.7783 149.605 22.6687C149.275 23.5592 148.822 24.3282 148.286 24.9354C147.709 25.583 147.049 26.0282 146.266 26.3925C145.483 26.7163 144.617 26.9187 143.71 26.9187C142.762 26.9187 141.896 26.7568 141.154 26.3925C140.371 26.0687 139.711 25.583 139.134 24.9354C138.557 24.2878 138.103 23.5592 137.815 22.6687C137.485 21.7783 137.361 20.8068 137.361 19.714C137.361 18.6211 137.526 17.6497 137.815 16.7592C138.145 15.8688 138.598 15.0997 139.134 14.4926C139.711 13.845 140.371 13.3593 141.154 13.0355C141.937 12.7117 142.803 12.5093 143.71 12.5093C144.617 12.5093 145.524 12.6712 146.266 13.0355C147.049 13.3593 147.709 13.845 148.286 14.4926C148.863 15.1402 149.317 15.8688 149.605 16.7592C149.935 17.6092 150.059 18.6211 150.059 19.714ZM148.204 19.714C148.204 17.9735 147.791 16.6378 147.008 15.5854C146.184 14.5735 145.07 14.0474 143.71 14.0474C142.35 14.0474 141.195 14.5735 140.412 15.5854C139.587 16.5973 139.216 17.9735 139.216 19.714C139.216 21.4544 139.629 22.7902 140.412 23.802C141.236 24.8139 142.35 25.3401 143.71 25.3401C145.112 25.3401 146.225 24.8139 147.008 23.802C147.791 22.7902 148.204 21.414 148.204 19.714Z" fill="white"/>
<path d="M163.254 26.1037C162.718 26.2656 162.017 26.387 161.11 26.5894C160.203 26.7513 159.131 26.8727 157.853 26.8727C156.822 26.8727 155.915 26.7108 155.215 26.4275C154.514 26.1442 153.937 25.6989 153.524 25.1323C153.071 24.5656 152.782 23.918 152.576 23.1489C152.37 22.3799 152.288 21.4894 152.288 20.5585V12.7871H154.06V19.9513C154.06 20.9228 154.143 21.7323 154.266 22.4204C154.431 23.1085 154.637 23.6347 154.967 24.0799C155.297 24.4846 155.709 24.8085 156.245 24.9704C156.781 25.1727 157.4 25.2537 158.142 25.2537C158.966 25.2537 159.708 25.2132 160.327 25.0918C160.945 25.0108 161.357 24.9299 161.481 24.8489V12.7871H163.254V26.1037Z" fill="white"/>
<path d="M167.003 12.7867H172.61V14.2438H167.003V21.5699C167.003 22.339 167.086 22.9866 167.209 23.4723C167.374 23.958 167.539 24.3628 167.787 24.6056C168.034 24.889 168.364 25.0509 168.694 25.1318C169.065 25.2128 169.477 25.2937 169.889 25.2937C170.631 25.2937 171.208 25.2128 171.662 25.0509C172.115 24.889 172.486 24.7271 172.734 24.6056L173.187 26.0223C172.94 26.1842 172.486 26.3461 171.868 26.5485C171.249 26.7509 170.549 26.8723 169.807 26.8723C168.941 26.8723 168.199 26.7509 167.622 26.5485C167.044 26.3461 166.55 25.9818 166.22 25.5366C165.89 25.0913 165.643 24.5247 165.478 23.8366C165.313 23.1485 165.272 22.339 165.272 21.4485V8.73909L167.044 8.41528L167.003 12.7867Z" fill="white"/>
<path d="M175.209 19.6683C175.209 18.4541 175.374 17.4017 175.745 16.5112C176.075 15.6207 176.57 14.8517 177.147 14.2446C177.724 13.6374 178.343 13.1922 179.085 12.9089C179.827 12.6255 180.569 12.4636 181.352 12.4636C183.042 12.4636 184.444 13.0303 185.475 14.1231C186.505 15.216 187 16.916 187 19.2231C187 19.385 187 19.5064 186.959 19.6683C186.959 19.8302 186.917 19.9517 186.917 20.0731H177.065C177.106 21.7731 177.518 23.0683 178.343 23.9588C179.126 24.8492 180.404 25.335 182.135 25.335C183.083 25.335 183.867 25.254 184.403 25.0516C184.98 24.8897 185.351 24.7278 185.598 24.6064L185.928 26.104C185.681 26.2659 185.186 26.4278 184.485 26.6302C183.784 26.8326 182.96 26.9135 182.053 26.9135C180.816 26.9135 179.785 26.7516 178.92 26.3873C178.054 26.023 177.353 25.5373 176.776 24.8897C176.199 24.2421 175.828 23.4731 175.58 22.6231C175.333 21.6921 175.209 20.7207 175.209 19.6683ZM185.145 18.5755C185.104 17.1588 184.774 16.0255 184.114 15.216C183.455 14.4065 182.548 14.0422 181.352 14.0422C180.692 14.0422 180.156 14.1636 179.662 14.4065C179.167 14.6493 178.714 14.9731 178.343 15.4184C177.972 15.8231 177.683 16.3088 177.477 16.8755C177.271 17.4422 177.147 18.0088 177.106 18.616H185.145V18.5755Z" fill="white"/>
<path d="M7.79164 27.1998C8.32757 27.1998 8.86351 27.3212 9.35821 27.5236L14.7588 21.9379C14.3465 21.2094 14.0579 20.3189 14.0579 19.388C14.0579 16.9999 15.5008 14.9761 17.9331 14.4094V3.92616C16.3666 3.3595 15.3771 1.94284 15.3771 0.283331C15.3771 0.161904 15.3771 0.0809518 15.3771 0C6.5961 1.78094 0 9.43088 0 18.6189C0 22.9498 1.48412 26.9165 3.95766 30.1141C4.41114 28.4546 5.97771 27.1998 7.79164 27.1998ZM8.03899 12.3856C9.48189 12.3856 10.595 13.5189 10.595 14.8951C10.595 16.3118 9.44066 17.4046 8.03899 17.4046C6.5961 17.4046 5.48301 16.2713 5.48301 14.8951C5.48301 13.5189 6.63732 12.3856 8.03899 12.3856Z" fill="white"/>
<path d="M29.5981 9.47019C29.4744 9.06543 29.392 8.6202 29.392 8.17496C29.392 6.39402 30.5463 4.89641 32.1129 4.32975C29.6805 2.225 26.7123 0.727397 23.4143 0.0393066C23.4143 0.120258 23.4143 0.20121 23.4143 0.322638C23.4143 2.02263 22.1363 3.43928 20.7758 4.00594V14.5297C20.9819 14.6916 21.8889 14.9749 22.3424 15.2987L29.5981 9.47019Z" fill="white"/>
<path d="M33.557 12.2648C32.7325 12.2648 31.9904 12.0219 31.3308 11.6172L24.1576 17.4457C24.4049 18.0528 24.5698 18.7005 24.5698 19.429C24.5698 20.4004 24.2812 21.2909 23.8278 22.1004L29.2283 28.2932C29.6818 28.1313 30.1353 28.0504 30.63 28.0504C32.3615 28.0504 33.8456 29.1028 34.5052 30.5599C37.1849 27.2813 38.7927 23.1528 38.7927 18.66C38.7927 15.7862 38.1331 13.0743 36.9787 10.6458C36.1542 11.6172 34.9587 12.2648 33.557 12.2648Z" fill="white"/>
<path d="M16.7798 23.8789L11.4205 29.3836C11.6678 29.9098 11.8327 30.517 11.8327 31.1241C11.8327 32.8241 10.7609 34.2407 9.23553 34.8074C12.2038 36.5883 15.6667 37.6407 19.377 37.6407C22.5926 37.6407 25.6021 36.8717 28.2818 35.536C27.1687 34.8074 26.4266 33.5526 26.4266 32.136C26.4266 31.3669 26.6327 30.6384 27.045 30.0312L21.7269 23.9194C20.9848 24.2837 20.2015 24.5265 19.2946 24.5265C18.3876 24.5265 17.5219 24.2837 16.7798 23.8789Z" fill="white"/>
</svg>
